<svg width="61" height="18" viewBox="0 0 61 18" fill="none" xmlns="http://www.w3.org/2000/svg">
<g clip-path="url(#clip0_314_195)">
<g clip-path="url(#clip1_314_195)">
<g clip-path="url(#clip2_314_195)">
<path d="M15.1897 9.176V7.196H5.00172C5.36172 6.818 6.00972 6.224 6.80172 5.414L9.78972 2.354H7.05372C5.64972 3.812 3.02172 6.656 1.50972 8.168C3.02172 9.698 5.63172 12.578 7.05372 14H9.78972L6.80172 10.94C6.02772 10.166 5.34372 9.572 5.00172 9.176H15.1897Z" fill="black"/>
</g>
</g>
</g>
<g clip-path="url(#clip3_314_195)">
<g clip-path="url(#clip4_314_195)">
<g clip-path="url(#clip5_314_195)">
<path d="M36.8492 9.176H47.0372C46.6952 9.572 46.0112 10.166 45.2372 10.94L42.2492 14H44.9852C46.4072 12.578 49.0172 9.698 50.5292 8.168C49.0172 6.656 46.3892 3.812 44.9852 2.354H42.2492L45.2372 5.414C46.0292 6.224 46.6772 6.818 47.0372 7.196H36.8492V9.176Z" fill="black"/>
</g>
</g>
</g>
<defs>
<clipPath id="clip0_314_195">
<rect width="15" height="12" fill="white" transform="translate(0.529999 2)"/>
</clipPath>
<clipPath id="clip1_314_195">
<rect width="15" height="12" fill="white" transform="translate(0.529999 2)"/>
</clipPath>
<clipPath id="clip2_314_195">
<rect width="15" height="12" fill="white" transform="translate(0.529999 2)"/>
</clipPath>
<clipPath id="clip3_314_195">
<rect width="15" height="12" fill="white" transform="translate(35.94 2)"/>
</clipPath>
<clipPath id="clip4_314_195">
<rect width="15" height="12" fill="white" transform="translate(35.94 2)"/>
</clipPath>
<clipPath id="clip5_314_195">
<rect width="15" height="12" fill="white" transform="translate(35.94 2)"/>
</clipPath>
</defs>
</svg>
