<svg width="168" height="36" viewBox="0 0 168 36" fill="none" xmlns="http://www.w3.org/2000/svg">
<g clip-path="url(#clip0_314_311)">
<g clip-path="url(#clip1_314_311)">
<g clip-path="url(#clip2_314_311)">
<path d="M8.83569 17.1742C7.60129 17.1742 7.05989 16.8935 7.01658 15.6846C6.5618 16.5913 5.45734 17.2605 3.72485 17.2605C1.40765 17.2605 0 16.0516 0 14.0224C0 11.8852 1.75414 10.741 3.85479 10.741C5.00256 10.741 5.82549 10.9569 6.41021 11.3886L6.34524 10.741C6.15033 8.58221 5.65224 7.30853 4.22294 7.30853C2.29555 7.30853 3.16179 9.94225 1.34268 9.94225C0.649683 9.94225 0.151593 9.53208 0.151593 8.84127C0.151593 7.45964 1.92739 6.4666 4.2446 6.4666C6.99492 6.4666 8.77072 7.54599 9.03059 10.2445L9.48537 14.9722C9.61531 16.397 10.6765 15.8789 10.6765 16.6129C10.6981 17.0447 9.78856 17.1742 8.83569 17.1742ZM2.79364 13.6985C2.79364 14.9938 3.42166 16.0084 4.82931 16.0084C5.80383 16.0084 6.67008 15.3608 6.69173 14.3678L6.60511 13.4179C6.45352 12.3385 5.69555 11.734 4.65606 11.734C3.44332 11.734 2.79364 12.5112 2.79364 13.6985Z" fill="black"/>
<path d="M15.7509 17.2605C12.6324 17.2605 10.6617 15.0154 10.6617 11.9931C10.6617 8.71174 13.0006 6.4666 15.8592 6.4666C18.3713 6.4666 20.0821 7.84822 20.0821 9.16509C20.0821 9.87749 19.5624 10.374 18.7395 10.3524C16.877 10.3092 17.57 7.3517 15.4694 7.37329C14.17 7.37329 13.3471 8.4311 13.3471 10.6331C13.3471 13.5474 14.7981 15.3824 16.8121 15.3824C18.1981 15.3824 18.9993 14.7132 19.5407 13.6554C19.8006 13.1804 20.3204 13.3963 20.2554 13.8497C20.0388 15.5551 18.4579 17.2605 15.7509 17.2605Z" fill="black"/>
<path d="M25.4302 17.2605C23.1563 17.2605 21.5104 16.138 21.5104 13.4179V8.90603C21.5104 7.99934 20.6875 7.84822 20.6875 7.39488V7.33011C20.6875 7.13582 20.8391 6.98471 21.0773 6.94153L23.5028 6.50978C23.9359 6.42342 24.2174 6.48819 24.2174 6.87677V13.0509C24.2174 14.9506 24.9104 15.7494 26.2315 15.7494C27.4659 15.7494 28.462 14.8211 28.462 13.3315V8.90603C28.462 7.99934 27.6174 7.84822 27.6174 7.39488V7.33011C27.6174 7.15741 27.7474 6.98471 28.0073 6.94153L30.4544 6.50978C30.9308 6.44501 31.1907 6.50977 31.1907 6.85518V14.9291C31.1907 16.5913 32.2735 15.8357 32.2735 16.5697C32.2735 17.0231 31.6671 17.1742 30.5627 17.1742C29.22 17.1742 28.7869 16.7856 28.7436 15.3824C28.0939 16.5697 26.9028 17.2605 25.4302 17.2605Z" fill="black"/>
<path d="M33.5096 17.0447C33.2281 17.0447 33.0332 16.9151 33.0332 16.6993V16.6129C33.0332 16.1164 33.8561 16.0084 33.8561 15.1449V9.72637C33.8561 8.81968 33.0332 8.58221 33.0332 8.17204V8.10728C33.0332 7.95616 33.1414 7.84822 33.4446 7.69711L35.7618 6.55295C36.2816 6.31548 36.5631 6.57454 36.5631 6.94153V15.1449C36.5631 16.0084 37.386 16.1164 37.386 16.6129V16.6993C37.386 16.9151 37.1911 17.0447 36.9096 17.0447H33.5096ZM33.423 3.31477C33.423 2.34331 34.1593 1.6525 35.1988 1.6525C36.2383 1.6525 36.9746 2.34331 36.9746 3.31477C36.9746 4.30781 36.2383 4.97704 35.1988 4.97704C34.1593 4.97704 33.423 4.30781 33.423 3.31477Z" fill="black"/>
<path d="M42.3991 17.2605C40.5583 17.2605 39.3889 16.1164 39.3889 13.9576V7.80505H38.1112C37.873 7.80505 37.7214 7.63235 37.7214 7.41647V7.09265C37.7214 6.83359 37.8513 6.68248 38.1112 6.68248H38.5226C40.1252 6.68248 40.6883 5.79738 40.8832 4.54528C40.9265 4.24305 41.0997 4.07034 41.3379 4.07034H41.6411C41.9443 4.07034 42.0959 4.24305 42.0959 4.54528V6.68248H44.8029C45.0195 6.68248 45.1927 6.85518 45.1927 7.09265V7.41647C45.1927 7.63235 45.0195 7.80505 44.8029 7.80505H42.0959V14.0224C42.0959 15.0154 42.6156 15.5551 43.3953 15.5551C44.3698 15.5551 44.608 14.8211 44.8029 14.1735C44.8462 13.9576 45.0195 13.8712 45.1711 13.8712C45.366 13.8712 45.5609 14.0008 45.5609 14.2167C45.5609 15.6846 44.4348 17.2605 42.3991 17.2605Z" fill="black"/>
<path d="M48.1374 21.6861C46.6648 21.6861 45.582 20.8441 45.582 19.7216C45.582 19.0092 46.0151 18.5558 46.7081 18.5558C48.1158 18.5558 47.726 20.4124 48.8304 20.4124C49.6534 20.4124 50.2164 19.7 51.1693 17.4764L47.1413 8.64698C46.6648 7.58917 46.0151 7.61076 46.0151 7.13582V7.04947C46.0151 6.83359 46.1884 6.68248 46.4266 6.68248H50.0648C50.2814 6.68248 50.433 6.81201 50.433 7.02788V7.09265C50.433 7.61076 49.6534 7.63235 50.0865 8.73333L52.4903 14.6484L54.8075 8.92762C55.284 7.78346 54.1362 7.7187 54.1362 7.09265V7.02788C54.1362 6.81201 54.2878 6.68248 54.5476 6.68248H56.9948C57.233 6.68248 57.4063 6.81201 57.4063 7.0063V7.09265C57.4063 7.61076 56.6699 7.80505 56.3018 8.64698L52.0139 18.5126C51.0394 20.7794 49.9566 21.6861 48.1374 21.6861Z" fill="black"/>
<path d="M72.3223 17.2399C69.507 17.2399 67.8828 16.1389 67.8828 14.8653C67.8828 14.1529 68.3592 13.7211 69.0089 13.7211C70.6764 13.7211 70.0917 16.2685 72.7338 16.2685C73.9032 16.2685 74.7045 15.8151 74.7045 14.9084C74.7045 12.1668 68.1427 13.829 68.1427 9.81368C68.1427 7.78442 69.9835 6.46756 72.5605 6.46756C75.2242 6.46756 76.7618 7.52537 76.7618 8.90699C76.7618 9.48986 76.2854 9.94321 75.7007 9.94321C73.9032 9.94321 74.5312 7.4606 72.214 7.4606C71.2179 7.4606 70.4382 7.87077 70.4382 8.82064C70.4382 11.4328 77.0217 9.87845 77.0217 14.0017C77.0217 15.9231 75.1376 17.2399 72.3223 17.2399Z" fill="black"/>
<path d="M83.225 17.2615C80.1065 17.2615 78.1358 15.0164 78.1358 11.9941C78.1358 8.7127 80.4747 6.46756 83.3333 6.46756C85.8454 6.46756 87.5562 7.84918 87.5562 9.16605C87.5562 9.87845 87.0364 10.375 86.2135 10.3534C84.3511 10.3102 85.0441 7.35266 82.9434 7.37425C81.6441 7.37425 80.8211 8.43206 80.8211 10.634C80.8211 13.5484 82.2721 15.3834 84.2861 15.3834C85.6721 15.3834 86.4734 14.7141 87.0148 13.6563C87.2747 13.1814 87.7944 13.3973 87.7294 13.8506C87.5129 15.5561 85.932 17.2615 83.225 17.2615Z" fill="black"/>
<path d="M96.1743 17.0672C95.8711 17.0672 95.6979 16.9377 95.6979 16.7218V16.6355C95.6979 16.1389 96.4991 16.031 96.4342 15.1459L96.131 10.9147C96.0227 9.10128 95.3081 7.95712 94.052 7.95712C92.7743 7.95712 91.9081 8.99334 91.9081 10.5693V15.1675C91.9081 16.031 92.8176 16.1174 92.8176 16.6355V16.7002C92.8176 16.9161 92.6227 17.0456 92.3195 17.0456H88.7679C88.4864 17.0456 88.3131 16.9161 88.3131 16.7002V16.6355C88.3131 16.1174 89.201 16.031 89.201 15.1675V3.94178C89.201 3.0135 88.2482 2.94873 88.2482 2.49539V2.43062C88.2482 2.21475 88.3998 2.06363 88.638 1.95569L91.1284 0.919476C91.5832 0.725185 91.8647 0.876301 91.8647 1.28647L91.8431 8.10824C92.4928 7.09361 93.6189 6.46756 94.9616 6.46756C97.1055 6.46756 98.6214 7.71966 98.8813 11.109L99.1629 15.1459C99.2278 16.031 100.007 16.1389 100.007 16.6355V16.7218C100.007 16.9377 99.8125 17.0672 99.5093 17.0672H96.1743Z" fill="black"/>
<path d="M105.225 17.2615C102.431 17.2615 100.265 15.4481 100.265 12.1452C100.265 9.05811 102.496 6.46756 105.398 6.46756C108.17 6.46756 109.448 8.23777 109.448 9.4251C109.448 10.1591 109.123 10.7204 108.04 11.0442L103.059 12.5122C103.492 14.1744 104.618 15.3834 106.264 15.3834C107.758 15.3834 108.56 14.6494 109.058 13.829C109.253 13.5052 109.816 13.6347 109.772 14.0665C109.621 15.3834 107.997 17.2615 105.225 17.2615ZM102.843 10.8067C102.843 11.001 102.843 11.1953 102.864 11.3896L105.723 10.5045C106.546 10.2454 106.784 9.9648 106.784 9.48986C106.784 8.36729 106.134 7.33107 105.051 7.33107C103.687 7.33107 102.843 8.75588 102.843 10.8067Z" fill="black"/>
<path d="M115.064 17.2615C112.53 17.2615 110.343 15.2323 110.343 11.9941C110.343 8.62636 112.682 6.46757 115.346 6.46757C116.58 6.46757 117.576 6.85615 118.291 7.56855V3.68273C118.291 2.71128 117.273 2.6681 117.273 2.17158V2.1284C117.273 1.9557 117.403 1.76141 117.663 1.67506L120.132 0.897891C120.673 0.725188 120.933 0.854714 120.933 1.30806V15.1675C120.933 16.031 121.756 16.1821 121.756 16.6571V16.7218C121.756 16.9377 121.626 17.0456 121.366 17.0456H118.984C118.702 17.0456 118.551 16.8729 118.529 16.6139L118.443 15.3618C117.836 16.5275 116.58 17.2615 115.064 17.2615ZM113.072 11.1737C113.072 13.7211 114.133 15.6856 116.06 15.6856C117.251 15.6856 118.291 14.7789 118.291 13.2678V10.5909C118.291 8.75589 117.035 7.59014 115.671 7.59014C113.916 7.59014 113.072 9.05812 113.072 11.1737Z" fill="black"/>
<path d="M126.931 17.2615C124.657 17.2615 123.012 16.1389 123.012 13.4189V8.90699C123.012 8.0003 122.189 7.84918 122.189 7.39584V7.33107C122.189 7.13678 122.34 6.98567 122.579 6.94249L125.004 6.51073C125.437 6.42438 125.719 6.48915 125.719 6.87773V13.0519C125.719 14.9516 126.412 15.7504 127.733 15.7504C128.967 15.7504 129.963 14.8221 129.963 13.3325V8.90699C129.963 8.0003 129.119 7.84918 129.119 7.39584V7.33107C129.119 7.15837 129.249 6.98567 129.508 6.94249L131.956 6.51073C132.432 6.44597 132.692 6.51073 132.692 6.85614V14.93C132.692 16.5923 133.775 15.8367 133.775 16.5707C133.775 17.024 133.168 17.1752 132.064 17.1752C130.721 17.1752 130.288 16.7866 130.245 15.3834C129.595 16.5707 128.404 17.2615 126.931 17.2615Z" fill="black"/>
<path d="M134.946 17.0456C134.664 17.0456 134.491 16.9161 134.491 16.7002V16.6355C134.491 16.1174 135.292 16.031 135.292 15.1675V4.04972C135.292 3.12144 134.491 2.94873 134.491 2.53856V2.4738C134.491 2.23633 134.686 2.14998 134.881 2.06363L137.22 0.941064C137.739 0.682011 138.021 0.962652 138.021 1.28647V15.1675C138.021 16.031 138.931 16.1174 138.931 16.6355V16.7002C138.931 16.9161 138.736 17.0456 138.432 17.0456H134.946Z" fill="black"/>
<path d="M140.417 17.0456C140.136 17.0456 139.941 16.9161 139.941 16.7002V16.6139C139.941 16.1174 140.764 16.0094 140.764 15.1459V9.72734C140.764 8.82065 139.941 8.58318 139.941 8.17301V8.10825C139.941 7.95713 140.049 7.84919 140.352 7.69808L142.669 6.55392C143.189 6.31645 143.471 6.57551 143.471 6.9425V15.1459C143.471 16.0094 144.294 16.1174 144.294 16.6139V16.7002C144.294 16.9161 144.099 17.0456 143.817 17.0456H140.417ZM140.331 3.31574C140.331 2.34428 141.067 1.65347 142.106 1.65347C143.146 1.65347 143.882 2.34428 143.882 3.31574C143.882 4.30878 143.146 4.97801 142.106 4.97801C141.067 4.97801 140.331 4.30878 140.331 3.31574Z" fill="black"/>
<path d="M153.097 17.0456C152.793 17.0456 152.62 16.9161 152.62 16.7002V16.6139C152.62 16.1174 153.421 16.0094 153.356 15.1243L153.075 10.8067C152.923 8.79905 152.23 8.04348 150.974 8.04348C149.697 8.04348 148.83 9.01493 148.83 10.5477V15.1459C148.83 16.0094 149.74 16.1174 149.74 16.6139V16.7002C149.74 16.9161 149.567 17.0456 149.263 17.0456H145.712C145.409 17.0456 145.235 16.9161 145.235 16.7002V16.6139C145.235 16.1174 146.123 16.0094 146.123 15.1459V9.61939C146.123 8.64794 145.084 8.60476 145.084 8.10824V8.04348C145.084 7.87077 145.214 7.76283 145.495 7.63331L147.769 6.55391C148.246 6.33803 148.462 6.5755 148.462 6.96408V8.7127C149.025 7.33108 150.325 6.46756 151.884 6.46756C154.028 6.46756 155.565 7.71966 155.782 10.8715L156.107 15.1243C156.172 16.0094 156.93 16.1174 156.93 16.6139V16.7002C156.93 16.9161 156.735 17.0456 156.453 17.0456H153.097Z" fill="black"/>
<path d="M162.336 15.1891C159.348 15.1891 157.42 13.3973 157.42 10.8931C157.42 8.32412 159.456 6.46756 162.445 6.46756C163.852 6.46756 164.394 6.68344 166.797 6.68344C167.75 6.68344 167.815 6.96408 167.815 7.30949C167.815 8.12983 166.841 7.93554 166.083 8.10824C166.949 8.77746 167.469 9.83527 167.469 10.8499C167.469 12.5985 166.494 13.8938 164.957 14.4983C166.711 14.8005 167.837 15.6424 167.837 17.1104C167.837 19.0101 165.606 20.3054 162.488 20.3054C159.153 20.3054 157.334 18.7943 157.334 17.2183C157.334 16.6786 157.68 16.1389 158.438 16.1389C160.192 16.1389 159.586 19.2476 162.618 19.2476C164.35 19.2476 165.087 18.4488 165.087 17.3695C165.087 16.031 164.004 15.1891 162.336 15.1891ZM160.084 10.0943C160.084 12.1236 160.929 14.196 162.769 14.196C164.025 14.196 164.783 13.1166 164.783 11.5839C164.783 9.55463 163.96 7.48219 162.098 7.48219C160.842 7.48219 160.084 8.54 160.084 10.0943Z" fill="black"/>
<path d="M62.2938 10.4002C63.3233 10.4002 64.1579 9.56823 64.1579 8.54197C64.1579 7.5157 63.3233 6.68375 62.2938 6.68375C61.2643 6.68375 60.4297 7.5157 60.4297 8.54197C60.4297 9.56823 61.2643 10.4002 62.2938 10.4002Z" fill="black"/>
<path d="M62.2938 17.0486C63.3233 17.0486 64.1579 16.2167 64.1579 15.1904C64.1579 14.1641 63.3233 13.3322 62.2938 13.3322C61.2643 13.3322 60.4297 14.1641 60.4297 15.1904C60.4297 16.2167 61.2643 17.0486 62.2938 17.0486Z" fill="black"/>
<path d="M0.830512 30.4224H0V25.6135H3.01395V26.3502H0.830512V27.6161H2.85321V28.3461H0.830512V30.4224Z" fill="black"/>
<path d="M7.42421 30.188V30.4224H6.6138L5.14701 28.5336H4.60449V30.4224H3.77398V25.6135H5.33454C5.82347 25.6135 6.27891 25.6536 6.63389 25.8948C7.00896 26.1426 7.20319 26.531 7.20319 27.0267C7.20319 27.8974 6.64728 28.3126 6.0378 28.4533L7.42421 30.188ZM4.60449 26.3301V27.817H5.33454C5.97082 27.817 6.37268 27.596 6.37268 27.0602C6.37268 26.5109 5.97082 26.3301 5.33454 26.3301H4.60449Z" fill="black"/>
<path d="M10.2338 25.5197C11.6872 25.5197 12.6516 26.5578 12.6516 28.0246C12.6516 29.478 11.7207 30.5162 10.2405 30.5162C8.76699 30.5162 7.82932 29.478 7.82932 28.0246C7.82932 26.5645 8.78039 25.5197 10.2338 25.5197ZM10.2271 26.2363C9.26932 26.2363 8.69332 26.9932 8.69332 28.0112C8.69332 29.036 9.27602 29.7995 10.2338 29.7995C11.1916 29.7995 11.7743 29.0427 11.7743 28.0179C11.7743 26.9798 11.1916 26.2363 10.2271 26.2363Z" fill="black"/>
<path d="M14.2843 27.9175V30.4224H13.4738V25.6135H14.7866L15.6506 28.1787C15.7644 28.5135 15.9252 29.0427 16.0524 29.4445H16.0658C16.2065 29.0427 16.394 28.4533 16.5012 28.1318L17.3652 25.6135H18.6444V30.4224H17.8206V27.9844C17.8206 27.4754 17.8407 26.732 17.8407 26.3435H17.8206C17.747 26.5846 17.5259 27.2611 17.3049 27.9309L16.461 30.4224H15.6305L14.6191 27.4285C14.4651 26.9664 14.3847 26.6315 14.291 26.31H14.2709C14.2776 26.6985 14.2843 27.2544 14.2843 27.9175Z" fill="black"/>
<path d="M20.9747 29.1297L21.7918 29.0561C21.8856 29.5316 22.2674 29.8263 22.8501 29.8263C23.4261 29.8263 23.7609 29.5316 23.7609 29.0962C23.7609 28.6609 23.4194 28.547 22.8635 28.393L22.5018 28.2925C21.6445 28.0514 21.1221 27.6629 21.1221 26.8994C21.1221 26.0957 21.7784 25.5197 22.83 25.5197C23.8145 25.5197 24.4173 26.0287 24.5178 26.8123L23.7141 26.8793C23.6136 26.4775 23.3256 26.243 22.8032 26.243C22.3142 26.243 22.0195 26.4975 22.0195 26.8525C22.0195 27.2544 22.3544 27.3816 22.9036 27.5558L23.2452 27.6629C24.1092 27.9309 24.6383 28.1988 24.6383 29.036C24.6383 29.9335 23.8882 30.5295 22.8233 30.5295C21.832 30.5295 21.1288 30.0674 20.9747 29.1297Z" fill="black"/>
<path d="M27.5666 25.5197C29.02 25.5197 29.9845 26.5578 29.9845 28.0246C29.9845 28.7748 29.7233 29.4043 29.2745 29.8464L29.9175 30.6032V30.8376H29.1004L28.6517 30.2884C28.3369 30.4291 27.9819 30.5162 27.5733 30.5162C26.0998 30.5162 25.1622 29.478 25.1622 28.0246C25.1622 26.5645 26.1132 25.5197 27.5666 25.5197ZM27.5599 26.2363C26.6022 26.2363 26.0262 26.9932 26.0262 28.0112C26.0262 29.036 26.6089 29.8062 27.5666 29.8062C28.5244 29.8062 29.1071 29.0762 29.1071 28.0179C29.1071 26.9798 28.5244 26.2363 27.5599 26.2363Z" fill="black"/>
<path d="M32.715 29.8397C33.3982 29.8397 33.8068 29.4177 33.8068 28.547V25.6135H34.6507V28.5671C34.6507 29.9602 33.9206 30.5295 32.715 30.5295C31.5095 30.5295 30.7794 29.9602 30.7794 28.5671V25.6135H31.6233V28.547C31.6233 29.4177 32.0319 29.8397 32.715 29.8397Z" fill="black"/>
<path d="M35.1786 30.4224V30.188L36.8865 25.6135H38.1524L39.8402 30.188V30.4224H39.0097L38.5274 29.0494H36.4445L35.9622 30.4224H35.1786ZM36.9736 27.5692L36.699 28.3327H38.2863L38.0251 27.5692C37.8175 26.9731 37.7036 26.6315 37.6098 26.3435H37.4022C37.2951 26.6449 37.2013 26.9262 36.9736 27.5692Z" fill="black"/>
<path d="M44.1633 30.188V30.4224H43.3529L41.8861 28.5336H41.3436V30.4224H40.5131V25.6135H42.0736C42.5626 25.6135 43.018 25.6536 43.373 25.8948C43.7481 26.1426 43.9423 26.531 43.9423 27.0267C43.9423 27.8974 43.3864 28.3126 42.7769 28.4533L44.1633 30.188ZM41.3436 26.3301V27.817H42.0736C42.7099 27.817 43.1118 27.596 43.1118 27.0602C43.1118 26.5109 42.7099 26.3301 42.0736 26.3301H41.3436Z" fill="black"/>
<path d="M44.915 30.4224V25.6135H48.0294V26.3502H45.7388V27.6027H47.8686V28.3327H45.7388V29.6856H48.0763V30.4224H44.915Z" fill="black"/>
<path d="M48.6157 29.1297L49.4328 29.0561C49.5266 29.5316 49.9083 29.8263 50.491 29.8263C51.067 29.8263 51.4019 29.5316 51.4019 29.0962C51.4019 28.6609 51.0603 28.547 50.5044 28.393L50.1428 28.2925C49.2855 28.0514 48.763 27.6629 48.763 26.8994C48.763 26.0957 49.4194 25.5197 50.471 25.5197C51.4555 25.5197 52.0583 26.0287 52.1588 26.8123L51.355 26.8793C51.2546 26.4775 50.9666 26.243 50.4442 26.243C49.9552 26.243 49.6605 26.4975 49.6605 26.8525C49.6605 27.2544 49.9954 27.3816 50.5446 27.5558L50.8862 27.6629C51.7502 27.9309 52.2793 28.1988 52.2793 29.036C52.2793 29.9335 51.5292 30.5295 50.4643 30.5295C49.473 30.5295 48.7697 30.0674 48.6157 29.1297Z" fill="black"/>
<path d="M53.915 30.4224H53.0778V25.6135H54.8325C56.1319 25.6135 56.5739 26.2631 56.5739 27.1003C56.5739 28.105 55.8841 28.5738 54.7656 28.5738H53.915V30.4224ZM53.915 26.3301V27.8572H54.7187C55.3014 27.8572 55.7367 27.6763 55.7367 27.1003C55.7367 26.5042 55.3081 26.3301 54.7321 26.3301H53.915Z" fill="black"/>
<path d="M56.5405 30.4224V30.188L58.2484 25.6135H59.5143L61.2021 30.188V30.4224H60.3716L59.8893 29.0494H57.8064L57.3241 30.4224H56.5405ZM58.3355 27.5692L58.0609 28.3327H59.6482L59.387 27.5692C59.1794 26.9731 59.0655 26.6315 58.9718 26.3435H58.7641C58.657 26.6449 58.5632 26.9262 58.3355 27.5692Z" fill="black"/>
<path d="M65.1458 29.0159L65.983 29.1565C65.6883 29.9134 64.9985 30.5162 63.8666 30.5162C62.4333 30.5162 61.5023 29.4579 61.5023 28.0246C61.5023 26.5913 62.4333 25.5197 63.88 25.5197C64.9315 25.5197 65.6615 26.0488 65.9562 26.8592L65.1056 27.0267C64.8779 26.5377 64.4493 26.2363 63.8666 26.2363C62.9155 26.2363 62.373 27.02 62.373 28.0246C62.373 29.036 62.9423 29.7995 63.9 29.7995C64.5229 29.7995 64.9248 29.4512 65.1458 29.0159Z" fill="black"/>
<path d="M66.6889 30.4224V25.6135H69.8034V26.3502H67.5128V27.6027H69.6426V28.3327H67.5128V29.6856H69.8503V30.4224H66.6889Z" fill="black"/>
</g>
</g>
</g>
<defs>
<clipPath id="clip0_314_311">
<rect width="168" height="31" fill="white" transform="translate(0 0.589996)"/>
</clipPath>
<clipPath id="clip1_314_311">
<rect width="168" height="31" fill="white" transform="translate(0 0.589996)"/>
</clipPath>
<clipPath id="clip2_314_311">
<rect width="168" height="31" fill="white" transform="translate(0 0.589996)"/>
</clipPath>
</defs>
</svg>
