<svg width="143" height="36" viewBox="0 0 143 36" fill="none" xmlns="http://www.w3.org/2000/svg">
<g clip-path="url(#clip0_314_212)">
<g clip-path="url(#clip1_314_212)">
<g clip-path="url(#clip2_314_212)">
<path d="M30.0128 0H6.42108C3.15059 0 0.5 2.65059 0.5 5.92108V29.5128C0.5 32.7832 3.15059 35.4338 6.42108 35.4338H30.0128C33.2832 35.4338 35.9338 32.7832 35.9338 29.5128V5.92108C35.9338 2.65059 33.2832 0 30.0128 0ZM29.4926 27.1222C29.4926 28.1554 28.6554 28.9926 27.6222 28.9926H8.8116C7.77844 28.9926 6.94122 28.1554 6.94122 27.1222V8.3116C6.94122 7.27844 7.77844 6.44122 8.8116 6.44122H27.6222C28.6554 6.44122 29.4926 7.27844 29.4926 8.3116V27.1222ZM14.4584 22.5265C13.8634 22.5265 13.386 22.0455 13.386 21.4505V13.9405C13.386 13.3456 13.8634 12.8611 14.4584 12.8611H21.979C22.5704 12.8611 23.0514 13.342 23.0514 13.9405V21.447C23.0514 22.0419 22.5704 22.5229 21.979 22.5229H14.4584V22.5265ZM45.3285 22.0134H49.1975C49.3899 24.2045 50.8755 25.9145 53.8716 25.9145C56.5472 25.9145 58.1931 24.5928 58.1931 22.5942C58.1931 20.7238 56.9034 19.8866 54.5806 19.3379L51.5809 18.6931C48.3246 17.9841 45.8736 15.8893 45.8736 12.4692C45.8736 8.69636 49.226 6.11702 53.5795 6.11702C58.1895 6.11702 61.1572 8.53604 61.4137 12.1129H57.673C57.2276 10.4385 55.8382 9.44095 53.5831 9.44095C51.1961 9.44095 49.5537 10.7306 49.5537 12.3765C49.5537 14.0225 50.9717 15.02 53.4227 15.5687L56.3904 16.2135C59.6466 16.9225 61.8697 18.889 61.8697 22.3376C61.8697 26.7232 58.5814 29.3346 53.8752 29.3346C48.5847 29.3311 45.6527 26.4632 45.3285 22.0134ZM75.7105 35.4338V29.0176L75.9635 26.2031H75.7105C74.8234 28.2267 72.9602 29.3346 70.4307 29.3346C66.3515 29.3346 63.3161 26.0143 63.3161 20.9233C63.3161 15.8323 66.3515 12.5119 70.4307 12.5119C72.9281 12.5119 74.6987 13.6805 75.7105 15.5152H75.9635V12.8254H79.3159V35.4338H75.7105ZM75.8352 20.9197C75.8352 17.6635 73.8437 15.7646 71.4069 15.7646C68.97 15.7646 66.9785 17.6635 66.9785 20.9197C66.9785 24.176 68.97 26.0748 71.4069 26.0748C73.8437 26.0748 75.8352 24.1795 75.8352 20.9197ZM81.9914 22.5977V12.8254H85.5968V22.2806C85.5968 24.8422 86.8294 26.0748 88.8851 26.0748C91.4145 26.0748 93.0605 24.2721 93.0605 21.4577V12.8254H96.6658V29.014H93.3134V25.6616H93.0605C92.2696 27.8134 90.531 29.3311 87.8448 29.3311C83.9829 29.3311 81.9914 26.8657 81.9914 22.5977ZM98.8604 24.493C98.8604 21.4577 100.98 19.6871 104.742 19.4662L109.199 19.1812V17.9164C109.199 16.3988 108.091 15.4832 106.132 15.4832C104.329 15.4832 103.253 16.3988 102.968 17.6955H99.3628C99.744 14.4072 102.462 12.5084 106.128 12.5084C110.271 12.5084 112.801 14.279 112.801 17.6955V29.014H109.449V26.0107H109.196C108.437 28.0022 106.855 29.3311 103.82 29.3311C100.916 29.3311 98.8604 27.3716 98.8604 24.493ZM109.203 22.5015V21.6465L105.565 21.8994C103.606 22.0241 102.719 22.7545 102.719 24.208C102.719 25.4407 103.731 26.3278 105.152 26.3278C107.717 26.3278 109.203 24.6854 109.203 22.5015ZM115.491 29.0176V12.8254H118.843V15.9249H119.096C119.57 13.8052 121.184 12.8254 123.585 12.8254H125.231V16.0817H123.175C120.835 16.0817 119.096 17.5994 119.096 20.478V29.014H115.491V29.0176ZM141.726 21.5859H129.424C129.613 24.5572 131.701 26.2352 134.009 26.2352C135.969 26.2352 137.201 25.4442 137.9 24.1154H141.473C140.493 27.4037 137.615 29.3311 133.977 29.3311C129.203 29.3311 125.851 25.7578 125.851 20.9197C125.851 16.0817 129.296 12.5084 134.009 12.5084C138.751 12.5084 141.851 15.7646 141.851 19.8117C141.854 20.6062 141.79 21.0159 141.726 21.5859ZM138.281 19.0885C138.156 16.8441 136.289 15.3264 134.013 15.3264C131.861 15.3264 130.062 16.6873 129.617 19.0885H138.281Z" fill="#1A1A1A"/>
</g>
</g>
</g>
<defs>
<clipPath id="clip0_314_212">
<rect width="142" height="36" fill="white" transform="translate(0.5)"/>
</clipPath>
<clipPath id="clip1_314_212">
<rect width="142" height="36" fill="white" transform="translate(0.5)"/>
</clipPath>
<clipPath id="clip2_314_212">
<rect width="142" height="36" fill="white" transform="translate(0.5)"/>
</clipPath>
</defs>
</svg>
