<svg width="105" height="46" viewBox="0 0 105 46" fill="none" xmlns="http://www.w3.org/2000/svg">
<g clip-path="url(#clip0_314_208)">
<g clip-path="url(#clip1_314_208)">
<g clip-path="url(#clip2_314_208)">
<path fill-rule="evenodd" clip-rule="evenodd" d="M104.292 23.5635C104.292 15.9353 100.7 9.91612 93.8342 9.91612C86.9393 9.91612 82.7677 15.9353 82.7677 23.5039C82.7677 32.4731 87.6926 37.0024 94.7613 37.0024C98.2087 37.0024 100.816 36.1978 102.786 35.0655V29.1059C100.816 30.1191 98.5564 30.7448 95.6883 30.7448C92.8782 30.7448 90.3868 29.7317 90.0681 26.2155H104.235C104.235 25.8282 104.292 24.2787 104.292 23.5635ZM89.9812 20.7327C89.9812 17.3656 91.9801 15.9651 93.8053 15.9651C95.5724 15.9651 97.4555 17.3656 97.4555 20.7327H89.9812ZM71.5852 9.91612C68.7461 9.91612 66.921 11.2868 65.907 12.2404L65.5304 10.3929H59.157V45.1372L66.3995 43.5579L66.4285 35.1251C67.4714 35.8998 69.0068 37.0024 71.5562 37.0024C76.7419 37.0024 81.464 32.7115 81.464 23.2656C81.435 14.6242 76.655 9.91612 71.5852 9.91612ZM69.847 30.4468C68.1377 30.4468 67.1238 29.8211 66.4285 29.0463L66.3995 17.9913C67.1528 17.1272 68.1957 16.5312 69.847 16.5312C72.4833 16.5312 74.3084 19.5706 74.3084 23.4741C74.3084 27.467 72.5122 30.4468 69.847 30.4468ZM49.1913 8.15805L56.4628 6.54896V0.5L49.1913 2.07929V8.15805ZM49.1913 10.4227H56.4628V36.4958H49.1913V10.4227ZM41.3983 12.6277L40.9348 10.4227H34.6772V36.4958H41.9198V18.8257C43.629 16.5312 46.526 16.9484 47.4241 17.2762V10.4227C46.4971 10.0651 43.1075 9.40955 41.3983 12.6277ZM26.9132 3.95655L19.8445 5.50604L19.8156 29.3741C19.8156 33.7842 23.0312 37.0322 27.3188 37.0322C29.6944 37.0322 31.4326 36.5852 32.3886 36.0488V29.9999C31.4616 30.3872 26.8843 31.7579 26.8843 27.3479V16.7696H32.3886V10.4227H26.8843L26.9132 3.95655ZM7.32944 17.9913C7.32944 16.8292 8.25649 16.3823 9.7919 16.3823C11.9936 16.3823 14.7748 17.0676 16.9765 18.2893V11.2868C14.572 10.3035 12.1964 9.91612 9.7919 9.91612C3.91097 9.91612 0 13.0747 0 18.3489C0 26.5731 11.0086 25.262 11.0086 28.808C11.0086 30.1787 9.84984 30.6256 8.22752 30.6256C5.823 30.6256 2.75216 29.6125 0.318671 28.2418V35.3337C3.01289 36.5256 5.73609 37.0322 8.22752 37.0322C14.2533 37.0322 18.396 33.963 18.396 28.6292C18.3671 19.7494 7.32944 21.3287 7.32944 17.9913Z" fill="white"/>
</g>
</g>
</g>
<defs>
<clipPath id="clip0_314_208">
<rect width="105" height="45" fill="white" transform="translate(0 0.5)"/>
</clipPath>
<clipPath id="clip1_314_208">
<rect width="105" height="45" fill="white" transform="translate(0 0.5)"/>
</clipPath>
<clipPath id="clip2_314_208">
<rect width="105" height="45" fill="white" transform="translate(0 0.5)"/>
</clipPath>
</defs>
</svg>
